<mxfile host="app.diagrams.net" modified="2023-02-13T06:22:17.465Z" agent="5.0 (Windows NT 10.0; Win64; x64) AppleWebKit/537.36 (KHTML, like Gecko) Chrome/109.0.0.0 Safari/537.36" etag="hdUIIfaI_fe_y2asNELi" version="20.8.20" type="github">
  <diagram id="R2lEEEUBdFMjLlhIrx00" name="Page-1">
    <mxGraphModel dx="1050" dy="549" grid="1" gridSize="10" guides="1" tooltips="1" connect="1" arrows="1" fold="1" page="1" pageScale="1" pageWidth="850" pageHeight="1100" math="0" shadow="0" extFonts="Permanent Marker^https://fonts.googleapis.com/css?family=Permanent+Marker">
      <root>
        <mxCell id="0" />
        <mxCell id="1" parent="0" />
        <mxCell id="1Xf7fbBkaFYpPVQfP7VX-22" style="edgeStyle=none;rounded=0;orthogonalLoop=1;jettySize=auto;html=1;exitX=0;exitY=0;exitDx=0;exitDy=0;" edge="1" parent="1">
          <mxGeometry relative="1" as="geometry">
            <mxPoint x="154.64466094067257" y="25.85786437626905" as="sourcePoint" />
            <mxPoint x="154.64466094067257" y="25.85786437626905" as="targetPoint" />
          </mxGeometry>
        </mxCell>
        <mxCell id="1Xf7fbBkaFYpPVQfP7VX-43" value="" style="edgeStyle=none;rounded=0;orthogonalLoop=1;jettySize=auto;html=1;" edge="1" parent="1" source="1Xf7fbBkaFYpPVQfP7VX-29" target="1Xf7fbBkaFYpPVQfP7VX-32">
          <mxGeometry relative="1" as="geometry" />
        </mxCell>
        <mxCell id="1Xf7fbBkaFYpPVQfP7VX-29" value="User" style="whiteSpace=wrap;html=1;align=center;" vertex="1" parent="1">
          <mxGeometry x="20" y="120" width="100" height="40" as="geometry" />
        </mxCell>
        <mxCell id="1Xf7fbBkaFYpPVQfP7VX-30" value="Logs in" style="shape=rhombus;perimeter=rhombusPerimeter;whiteSpace=wrap;html=1;align=center;" vertex="1" parent="1">
          <mxGeometry x="160" y="210" width="120" height="60" as="geometry" />
        </mxCell>
        <mxCell id="1Xf7fbBkaFYpPVQfP7VX-51" style="edgeStyle=none;rounded=0;orthogonalLoop=1;jettySize=auto;html=1;exitX=1;exitY=0.5;exitDx=0;exitDy=0;entryX=0;entryY=0.5;entryDx=0;entryDy=0;" edge="1" parent="1" source="1Xf7fbBkaFYpPVQfP7VX-31" target="1Xf7fbBkaFYpPVQfP7VX-33">
          <mxGeometry relative="1" as="geometry" />
        </mxCell>
        <mxCell id="1Xf7fbBkaFYpPVQfP7VX-31" value="Account" style="whiteSpace=wrap;html=1;align=center;" vertex="1" parent="1">
          <mxGeometry x="400" y="100" width="100" height="40" as="geometry" />
        </mxCell>
        <mxCell id="1Xf7fbBkaFYpPVQfP7VX-54" style="edgeStyle=none;rounded=0;orthogonalLoop=1;jettySize=auto;html=1;exitX=1;exitY=0.5;exitDx=0;exitDy=0;entryX=0;entryY=0.5;entryDx=0;entryDy=0;" edge="1" parent="1" source="1Xf7fbBkaFYpPVQfP7VX-32" target="1Xf7fbBkaFYpPVQfP7VX-31">
          <mxGeometry relative="1" as="geometry" />
        </mxCell>
        <mxCell id="1Xf7fbBkaFYpPVQfP7VX-32" value="Makes" style="shape=rhombus;perimeter=rhombusPerimeter;whiteSpace=wrap;html=1;align=center;" vertex="1" parent="1">
          <mxGeometry x="160" y="110" width="120" height="60" as="geometry" />
        </mxCell>
        <mxCell id="1Xf7fbBkaFYpPVQfP7VX-52" style="edgeStyle=none;rounded=0;orthogonalLoop=1;jettySize=auto;html=1;exitX=0.5;exitY=1;exitDx=0;exitDy=0;entryX=0.5;entryY=0;entryDx=0;entryDy=0;" edge="1" parent="1" source="1Xf7fbBkaFYpPVQfP7VX-33" target="1Xf7fbBkaFYpPVQfP7VX-34">
          <mxGeometry relative="1" as="geometry" />
        </mxCell>
        <mxCell id="1Xf7fbBkaFYpPVQfP7VX-33" value="Stored in" style="shape=rhombus;perimeter=rhombusPerimeter;whiteSpace=wrap;html=1;align=center;" vertex="1" parent="1">
          <mxGeometry x="680" y="120" width="120" height="60" as="geometry" />
        </mxCell>
        <mxCell id="1Xf7fbBkaFYpPVQfP7VX-34" value="User Table" style="whiteSpace=wrap;html=1;align=center;" vertex="1" parent="1">
          <mxGeometry x="690" y="250" width="100" height="40" as="geometry" />
        </mxCell>
        <mxCell id="1Xf7fbBkaFYpPVQfP7VX-36" value="&lt;span style=&quot;border-bottom: 1px dotted&quot;&gt;Firstname&lt;/span&gt;" style="ellipse;whiteSpace=wrap;html=1;align=center;" vertex="1" parent="1">
          <mxGeometry x="325" y="10" width="100" height="40" as="geometry" />
        </mxCell>
        <mxCell id="1Xf7fbBkaFYpPVQfP7VX-37" value="LastName" style="ellipse;whiteSpace=wrap;html=1;align=center;" vertex="1" parent="1">
          <mxGeometry x="460" y="10" width="100" height="40" as="geometry" />
        </mxCell>
        <mxCell id="1Xf7fbBkaFYpPVQfP7VX-38" value="ID" style="ellipse;whiteSpace=wrap;html=1;align=center;" vertex="1" parent="1">
          <mxGeometry x="490" y="160" width="100" height="40" as="geometry" />
        </mxCell>
        <mxCell id="1Xf7fbBkaFYpPVQfP7VX-39" value="Email" style="ellipse;whiteSpace=wrap;html=1;align=center;" vertex="1" parent="1">
          <mxGeometry x="270" y="60" width="100" height="40" as="geometry" />
        </mxCell>
        <mxCell id="1Xf7fbBkaFYpPVQfP7VX-40" value="Password" style="ellipse;whiteSpace=wrap;html=1;align=center;" vertex="1" parent="1">
          <mxGeometry x="300" y="160" width="100" height="40" as="geometry" />
        </mxCell>
        <mxCell id="1Xf7fbBkaFYpPVQfP7VX-41" value="Phone" style="ellipse;whiteSpace=wrap;html=1;align=center;" vertex="1" parent="1">
          <mxGeometry x="510" y="60" width="100" height="40" as="geometry" />
        </mxCell>
        <mxCell id="1Xf7fbBkaFYpPVQfP7VX-53" style="edgeStyle=none;rounded=0;orthogonalLoop=1;jettySize=auto;html=1;exitX=0;exitY=0.5;exitDx=0;exitDy=0;" edge="1" parent="1" source="1Xf7fbBkaFYpPVQfP7VX-33" target="1Xf7fbBkaFYpPVQfP7VX-33">
          <mxGeometry relative="1" as="geometry">
            <Array as="points">
              <mxPoint x="680" y="150" />
            </Array>
          </mxGeometry>
        </mxCell>
        <mxCell id="1Xf7fbBkaFYpPVQfP7VX-55" value="email" style="ellipse;whiteSpace=wrap;html=1;align=center;" vertex="1" parent="1">
          <mxGeometry x="90" y="280" width="100" height="40" as="geometry" />
        </mxCell>
        <mxCell id="1Xf7fbBkaFYpPVQfP7VX-56" value="Password" style="ellipse;whiteSpace=wrap;html=1;align=center;" vertex="1" parent="1">
          <mxGeometry x="30" y="220" width="100" height="40" as="geometry" />
        </mxCell>
        <mxCell id="1Xf7fbBkaFYpPVQfP7VX-58" value="" style="endArrow=none;html=1;rounded=0;exitX=1;exitY=0.5;exitDx=0;exitDy=0;entryX=0;entryY=0.5;entryDx=0;entryDy=0;" edge="1" parent="1" source="1Xf7fbBkaFYpPVQfP7VX-56" target="1Xf7fbBkaFYpPVQfP7VX-30">
          <mxGeometry width="50" height="50" relative="1" as="geometry">
            <mxPoint x="390" y="200" as="sourcePoint" />
            <mxPoint x="440" y="150" as="targetPoint" />
          </mxGeometry>
        </mxCell>
        <mxCell id="1Xf7fbBkaFYpPVQfP7VX-59" value="" style="endArrow=none;html=1;rounded=0;entryX=0;entryY=1;entryDx=0;entryDy=0;exitX=1;exitY=0;exitDx=0;exitDy=0;" edge="1" parent="1" source="1Xf7fbBkaFYpPVQfP7VX-40" target="1Xf7fbBkaFYpPVQfP7VX-31">
          <mxGeometry width="50" height="50" relative="1" as="geometry">
            <mxPoint x="390" y="200" as="sourcePoint" />
            <mxPoint x="440" y="150" as="targetPoint" />
          </mxGeometry>
        </mxCell>
        <mxCell id="1Xf7fbBkaFYpPVQfP7VX-60" value="" style="endArrow=none;html=1;rounded=0;entryX=1;entryY=1;entryDx=0;entryDy=0;exitX=0;exitY=0;exitDx=0;exitDy=0;" edge="1" parent="1" source="1Xf7fbBkaFYpPVQfP7VX-31" target="1Xf7fbBkaFYpPVQfP7VX-39">
          <mxGeometry width="50" height="50" relative="1" as="geometry">
            <mxPoint x="390" y="200" as="sourcePoint" />
            <mxPoint x="440" y="150" as="targetPoint" />
          </mxGeometry>
        </mxCell>
      </root>
    </mxGraphModel>
  </diagram>
</mxfile>
